<svg viewBox="0 0 69 16" fill="none" xmlns="http://www.w3.org/2000/svg"><path d="M25.8877 7.13589L27.3197 1.79189L27.8557 2.49589H26.0237L26.3997 1.19189H29.1837L27.5837 7.13589H25.8877Z" fill="#208060"></path><path d="M31.0556 7.25596C30.609 7.27514 30.1683 7.14881 29.7996 6.89596C29.4545 6.64165 29.2221 6.26285 29.1516 5.83996C29.0509 5.2824 29.0866 4.70875 29.2556 4.16796C29.4102 3.56114 29.6819 2.99042 30.0556 2.48796C30.3762 2.04884 30.7919 1.68785 31.2716 1.43196C31.7171 1.19417 32.2146 1.07048 32.7196 1.07196C33.1659 1.05563 33.6058 1.18172 33.9756 1.43196C34.3159 1.69072 34.547 2.06741 34.6236 2.48796C34.7169 3.04908 34.6786 3.6242 34.5116 4.16796C34.352 4.77048 34.0807 5.33765 33.7116 5.83996C33.391 6.27909 32.9754 6.64008 32.4956 6.89596C32.0518 7.13065 31.5577 7.25419 31.0556 7.25596ZM31.4236 5.87996C31.6126 5.87853 31.7966 5.81997 31.9516 5.71196C32.1492 5.56658 32.3107 5.37771 32.4236 5.15996C32.5896 4.84617 32.7159 4.51294 32.7996 4.16796C32.8995 3.85473 32.9534 3.52867 32.9596 3.19996C32.9849 2.99185 32.9274 2.78215 32.7996 2.61596C32.7438 2.55875 32.6763 2.51415 32.6018 2.48517C32.5273 2.45619 32.4475 2.44351 32.3676 2.44796C32.1787 2.44939 31.9946 2.50796 31.8396 2.61596C31.643 2.75907 31.4816 2.94512 31.3676 3.15996C31.19 3.47574 31.058 3.81512 30.9756 4.16796C30.8758 4.48901 30.8272 4.82379 30.8316 5.15996C30.8215 5.36054 30.8872 5.55758 31.0156 5.71196C31.0687 5.76614 31.1323 5.80896 31.2024 5.83784C31.2725 5.86672 31.3478 5.88105 31.4236 5.87996Z" fill="#208060"></path><path d="M37.0723 7.13589L38.6723 1.19189H40.0563L41.4323 5.23189H40.7043L44.1923 1.23189H45.6003L44.0003 7.13589H42.4003L43.3523 3.54389H43.6083L41.0483 6.55189H40.2963L39.2563 3.54389H39.5843L38.6163 7.13589H37.0723Z" fill="#208060"></path><path d="M47.2002 5.83189H50.3042L49.9602 7.13589H45.1602L46.7602 1.19189H51.4162L51.0642 2.49589H48.0802L47.2002 5.83189ZM47.7042 3.49589H50.4642L50.1282 4.74389H47.3602L47.7042 3.49589Z" fill="#208060"></path><path d="M50.8965 7.13589L52.4965 1.19189H53.8805L56.0965 5.19189H55.4405L56.4965 1.23189H58.1445L56.5445 7.17589H55.2005L52.9445 3.19989H53.6005L52.5365 7.13589H50.8965Z" fill="#208060"></path><path d="M57.7441 7.13589L59.3441 1.19189H61.0321L59.4321 7.13589H57.7441Z" fill="#208060"></path><path d="M61.8799 7.13589L63.1199 2.52789H61.2959L61.6479 1.19189H66.9759L66.6239 2.52789H64.7999L63.5679 7.13589H61.8799Z" fill="#208060"></path><path d="M25.8721 15.552L27.3281 10.144H28.3281L26.8801 15.552H25.8721ZM27.1041 14.272L27.3761 13.088L30.9921 10.144H32.1281L29.1041 12.648L28.3841 13.256L27.1041 14.272ZM29.6481 15.552L28.2321 13.088L29.0961 12.352L30.8321 15.552H29.6481Z" fill="#208060"></path><path d="M31.4238 15.552L32.5278 11.424H33.4878L32.3838 15.552H31.4238ZM33.1918 10.752C33.1166 10.758 33.041 10.7459 32.9714 10.7167C32.9018 10.6875 32.8402 10.642 32.7918 10.584C32.7491 10.5246 32.7211 10.456 32.7099 10.3837C32.6988 10.3114 32.705 10.2375 32.7278 10.168C32.7719 10.004 32.8707 9.86007 33.0078 9.76001C33.1496 9.64994 33.3243 9.59077 33.5038 9.59201C33.5782 9.58746 33.6526 9.59945 33.7218 9.62711C33.791 9.65478 33.8531 9.69743 33.9038 9.752C33.9491 9.80855 33.9788 9.87594 33.99 9.9475C34.0013 10.0191 33.9936 10.0923 33.9678 10.16C33.9215 10.3251 33.8233 10.4709 33.6878 10.576C33.548 10.6896 33.372 10.7492 33.1918 10.744V10.752Z" fill="#208060"></path><path d="M33.6562 15.552L34.7603 11.424H35.6802L35.3763 12.56V12.224C35.5662 11.9502 35.8258 11.732 36.1283 11.592C36.4525 11.4367 36.8088 11.3599 37.1682 11.368L36.9203 12.288H36.7122C36.3626 12.2814 36.0211 12.3942 35.7443 12.608C35.4385 12.8605 35.2293 13.211 35.1522 13.6L34.6163 15.592L33.6562 15.552Z" fill="#208060"></path><path d="M36.8643 15.552L37.9683 11.424H38.9283L37.8243 15.552H36.8643ZM38.6323 10.752C38.557 10.758 38.4814 10.7459 38.4118 10.7167C38.3422 10.6875 38.2806 10.642 38.2323 10.584C38.1896 10.5246 38.1615 10.456 38.1504 10.3837C38.1393 10.3114 38.1454 10.2375 38.1683 10.168C38.2123 10.004 38.3111 9.86007 38.4483 9.76001C38.5901 9.64994 38.7648 9.59077 38.9443 9.59201C39.0186 9.58746 39.093 9.59945 39.1622 9.62711C39.2314 9.65478 39.2936 9.69743 39.3443 9.752C39.3895 9.80855 39.4192 9.87594 39.4305 9.9475C39.4417 10.0191 39.434 10.0923 39.4083 10.16C39.3619 10.3251 39.2638 10.4709 39.1283 10.576C38.9884 10.6896 38.8124 10.7492 38.6323 10.744V10.752Z" fill="#208060"></path><path d="M45.4161 11.3679C45.695 11.3611 45.9707 11.4273 46.2161 11.5599C46.3269 11.6242 46.4232 11.7106 46.4989 11.8139C46.5746 11.9172 46.6281 12.035 46.6561 12.1599C46.7264 12.5004 46.7071 12.8532 46.6001 13.1839L45.9681 15.5839H45.0081L45.6081 13.3439C45.7105 13.0871 45.7105 12.8008 45.6081 12.5439C45.537 12.4505 45.4429 12.377 45.3349 12.3308C45.2269 12.2845 45.1089 12.267 44.9921 12.2799C44.784 12.2755 44.578 12.3222 44.3921 12.4159C44.1986 12.5101 44.0311 12.6502 43.9041 12.8239C43.752 13.0292 43.6431 13.2633 43.5841 13.5119L43.0241 15.6079H42.0641L42.6641 13.3679C42.7665 13.1111 42.7665 12.8248 42.6641 12.5679C42.593 12.4745 42.4988 12.401 42.3909 12.3548C42.2829 12.3085 42.1649 12.291 42.0481 12.3039C41.84 12.2995 41.634 12.3462 41.4481 12.4399C41.2561 12.5364 41.0891 12.6761 40.9601 12.8479C40.808 13.0532 40.6991 13.2873 40.6401 13.5359L40.0801 15.6319H39.1201L40.2241 11.5039H41.1201L40.8001 12.5279L40.7201 12.1999C40.9335 11.9334 41.2079 11.7221 41.5201 11.5839C41.8252 11.4399 42.1587 11.366 42.4961 11.3679C42.8297 11.3515 43.1584 11.4535 43.4241 11.6559C43.5456 11.7654 43.6388 11.9026 43.6959 12.0558C43.753 12.209 43.7723 12.3737 43.7521 12.5359L43.4161 12.3999C43.6457 12.0818 43.9473 11.8224 44.2963 11.6431C44.6453 11.4637 45.0317 11.3694 45.4241 11.3679H45.4161Z" fill="#208060"></path><path d="M15.9117 14.7361C19.1017 14.7361 21.6877 12.1501 21.6877 8.96008C21.6877 5.77009 19.1017 3.18408 15.9117 3.18408C12.7217 3.18408 10.1357 5.77009 10.1357 8.96008C10.1357 12.1501 12.7217 14.7361 15.9117 14.7361Z" fill="#D4EDDA"></path><path d="M16.0797 10.3441C15.9408 10.3205 15.8166 10.2439 15.733 10.1305C15.6494 10.0171 15.6131 9.87573 15.6317 9.73611L16.1677 6.32811C16.1783 6.25649 16.2032 6.18775 16.2411 6.12605C16.279 6.06434 16.3289 6.01095 16.388 5.96908C16.447 5.92722 16.514 5.89775 16.5847 5.88246C16.6555 5.86716 16.7286 5.86636 16.7997 5.88011C16.9401 5.90371 17.0657 5.98144 17.1495 6.09662C17.2333 6.21179 17.2685 6.35522 17.2477 6.49611L16.7117 9.89611C16.7034 9.96873 16.6799 10.0388 16.6427 10.1017C16.6055 10.1646 16.5554 10.219 16.4958 10.2613C16.4361 10.3036 16.3683 10.3328 16.2966 10.3471C16.2249 10.3613 16.151 10.3603 16.0797 10.3441Z" fill="#208060"></path><path d="M16.0798 10.344C15.9848 10.3293 15.896 10.2876 15.8238 10.224L14.3038 8.96803C14.2245 8.8705 14.1819 8.74817 14.1836 8.62244C14.1854 8.49671 14.2312 8.37559 14.3132 8.28026C14.3952 8.18492 14.5081 8.12145 14.6321 8.10093C14.7562 8.08042 14.8835 8.10417 14.9918 8.16803L16.5038 9.43203C16.6127 9.52248 16.6813 9.65231 16.6948 9.79319C16.7083 9.93407 16.6655 10.0746 16.5758 10.184C16.5131 10.2501 16.4349 10.2993 16.3482 10.3273C16.2616 10.3552 16.1693 10.361 16.0798 10.344Z" fill="#208060"></path><path d="M18.6562 0.551905L16.0962 0.167905C15.9875 0.147397 15.8756 0.149682 15.7678 0.174614C15.66 0.199546 15.5585 0.246583 15.4698 0.312751C15.381 0.378918 15.307 0.462777 15.2524 0.559023C15.1977 0.655269 15.1636 0.761809 15.1522 0.871905L15.1122 1.1359C15.0905 1.24464 15.0916 1.35671 15.1155 1.465C15.1393 1.5733 15.1854 1.67544 15.2509 1.76496C15.3163 1.85448 15.3997 1.92941 15.4956 1.98501C15.5916 2.0406 15.698 2.07564 15.8082 2.0879L16.1362 2.13591L16.0162 2.93591C14.6199 3.00909 13.286 3.53753 12.2184 4.44046C11.1507 5.34338 10.4082 6.5711 10.1042 7.93591C9.82912 9.16306 9.92164 10.4441 10.3702 11.619C10.8188 12.7938 11.6037 13.8105 12.6266 14.542C13.6496 15.2735 14.8655 15.6874 16.1223 15.732C17.3791 15.7766 18.6212 15.4499 19.6935 14.7927C20.7657 14.1356 21.6206 13.1771 22.1514 12.0369C22.6821 10.8968 22.8652 9.62557 22.6777 8.38201C22.4903 7.13844 21.9406 5.97767 21.0973 5.04466C20.254 4.11165 19.1546 3.44776 17.9362 3.13591L18.0482 2.3999L18.3682 2.44791C18.477 2.46841 18.5888 2.46613 18.6967 2.4412C18.8045 2.41626 18.906 2.36923 18.9947 2.30306C19.0835 2.23689 19.1575 2.15303 19.2121 2.05679C19.2668 1.96054 19.3009 1.854 19.3122 1.74391L19.3522 1.47991C19.3703 1.37291 19.3665 1.26336 19.3409 1.15791C19.3153 1.05246 19.2686 0.953312 19.2034 0.866505C19.1383 0.779697 19.0563 0.707041 18.9622 0.652957C18.8681 0.598873 18.764 0.564492 18.6562 0.551905ZM18.8242 13.2159C18.0511 13.7067 17.1498 13.9572 16.2343 13.9359C15.3187 13.9146 14.4301 13.6224 13.6806 13.0963C12.931 12.5701 12.3543 11.8335 12.0233 10.9797C11.6922 10.1259 11.6217 9.19307 11.8205 8.29916C12.0194 7.40525 12.4788 6.59036 13.1407 5.95745C13.8026 5.32454 14.6372 4.90203 15.5391 4.74329C16.441 4.58456 17.3697 4.69673 18.2079 5.06564C19.0461 5.43454 19.7561 6.04362 20.2482 6.81591C20.5755 7.32947 20.7983 7.90254 20.9039 8.5023C21.0094 9.10206 20.9957 9.71675 20.8634 10.3112C20.7311 10.9056 20.483 11.4682 20.1331 11.9666C19.7832 12.465 19.3384 12.8896 18.8242 13.2159Z" fill="#208060"></path><path d="M2.50391 3.76807H16.0879" stroke="#208060" stroke-width="2" stroke-linecap="round" stroke-linejoin="round"></path><path d="M5.28027 7.92798H10.4083" stroke="#208060" stroke-width="2" stroke-linecap="round" stroke-linejoin="round"></path><path d="M8.13574 12.1279H11.0797" stroke="#208060" stroke-width="2" stroke-linecap="round" stroke-linejoin="round"></path><path d="M4.91211 12.1279H5.64811" stroke="#208060" stroke-width="2" stroke-linecap="round" stroke-linejoin="round"></path></svg>