<svg viewBox="0 0 24 24" fill="none" xmlns="http://www.w3.org/2000/svg"><g clip-path="url(#clip0)"><path d="M20 12.35V10C20 10 20 9.95 20 9.93C20.4282 9.81943 20.8077 9.57003 21.0792 9.22082C21.3506 8.87161 21.4986 8.44228 21.5 8V5.5C21.5 4.96957 21.2893 4.46086 20.9142 4.08579C20.5391 3.71071 20.0304 3.5 19.5 3.5H4.5C3.96957 3.5 3.46086 3.71071 3.08579 4.08579C2.71071 4.46086 2.5 4.96957 2.5 5.5V8C2.50144 8.44228 2.64944 8.87161 2.92084 9.22082C3.19225 9.57003 3.57176 9.81943 4 9.93V10V18.5C4 19.0304 4.21071 19.5391 4.58579 19.9142C4.96086 20.2893 5.46957 20.5 6 20.5H12.55C12.9615 21.4022 13.5902 22.1883 14.3798 22.788C15.1694 23.3878 16.0954 23.7825 17.0749 23.9369C18.0544 24.0912 19.0569 24.0004 19.9927 23.6726C20.9285 23.3447 21.7685 22.7901 22.4375 22.0582C23.1065 21.3263 23.5837 20.44 23.8264 19.4786C24.0691 18.5172 24.0698 17.5106 23.8283 16.5489C23.5868 15.5872 23.1108 14.7003 22.4427 13.9675C21.7746 13.2348 20.9354 12.6791 20 12.35ZM4.5 8V5.5H19.5V8H4.5ZM12 18C11.99 18.1665 11.99 18.3335 12 18.5H6V10H18V12C16.9188 12.0015 15.8581 12.2952 14.93 12.85C14.9741 12.7385 14.9978 12.6199 15 12.5C15 12.2348 14.8946 11.9804 14.7071 11.7929C14.5196 11.6054 14.2652 11.5 14 11.5H10C9.73478 11.5 9.48043 11.6054 9.29289 11.7929C9.10536 11.9804 9 12.2348 9 12.5C9 12.7652 9.10536 13.0196 9.29289 13.2071C9.48043 13.3946 9.73478 13.5 10 13.5H14.05C13.4082 14.0613 12.8933 14.753 12.5399 15.529C12.1864 16.3049 12.0023 17.1473 12 18ZM18 22C17.2089 22 16.4355 21.7654 15.7777 21.3259C15.1199 20.8864 14.6072 20.2616 14.3045 19.5307C14.0017 18.7998 13.9225 17.9956 14.0769 17.2196C14.2312 16.4437 14.6122 15.731 15.1716 15.1716C15.731 14.6122 16.4437 14.2312 17.2196 14.0769C17.9956 13.9225 18.7998 14.0017 19.5307 14.3045C20.2616 14.6072 20.8864 15.1199 21.3259 15.7777C21.7654 16.4355 22 17.2089 22 18C22 19.0609 21.5786 20.0783 20.8284 20.8284C20.0783 21.5786 19.0609 22 18 22Z" fill="#474747"></path><path d="M19 19.5V16.5C19 16.2348 18.8946 15.9804 18.7071 15.7929C18.5196 15.6054 18.2652 15.5 18 15.5C17.7348 15.5 17.4804 15.6054 17.2929 15.7929C17.1054 15.9804 17 16.2348 17 16.5V19.5C17 19.7652 17.1054 20.0196 17.2929 20.2071C17.4804 20.3946 17.7348 20.5 18 20.5C18.2652 20.5 18.5196 20.3946 18.7071 20.2071C18.8946 20.0196 19 19.7652 19 19.5Z" fill="#474747"></path></g><defs><clipPath id="clip0"><rect width="24" height="24" fill="white"></rect></clipPath></defs></svg>