<svg viewBox="0 0 24 24" fill="none" xmlns="http://www.w3.org/2000/svg"><g clip-path="url(#clip0)"><path d="M14 11.5H10C9.73478 11.5 9.48043 11.6054 9.29289 11.7929C9.10536 11.9804 9 12.2348 9 12.5C9 12.7652 9.10536 13.0196 9.29289 13.2071C9.48043 13.3946 9.73478 13.5 10 13.5H14C14.2652 13.5 14.5196 13.3946 14.7071 13.2071C14.8946 13.0196 15 12.7652 15 12.5C15 12.2348 14.8946 11.9804 14.7071 11.7929C14.5196 11.6054 14.2652 11.5 14 11.5Z" fill="#474747"></path><path d="M19.5 3.5H4.5C3.96957 3.5 3.46086 3.71071 3.08579 4.08579C2.71071 4.46086 2.5 4.96957 2.5 5.5V8C2.50144 8.44228 2.64944 8.87161 2.92084 9.22082C3.19225 9.57003 3.57176 9.81943 4 9.93V10V18.5C4 19.0304 4.21071 19.5391 4.58579 19.9142C4.96086 20.2893 5.46957 20.5 6 20.5H12.55C12.2594 19.8695 12.0833 19.1922 12.03 18.5H6V10H18V10.5C18 10.7652 18.1054 11.0196 18.2929 11.2071C18.4804 11.3946 18.7348 11.5 19 11.5C19.2652 11.5 19.5196 11.3946 19.7071 11.2071C19.8946 11.0196 20 10.7652 20 10.5V10C20 10 20 9.95 20 9.93C20.4282 9.81943 20.8077 9.57003 21.0792 9.22082C21.3506 8.87161 21.4986 8.44228 21.5 8V5.5C21.5 4.96957 21.2893 4.46086 20.9142 4.08579C20.5391 3.71071 20.0304 3.5 19.5 3.5ZM6 8H4.5V5.5H19.5V8H6Z" fill="#474747"></path><path d="M23 17C22.7348 17 22.4804 17.1054 22.2929 17.2929C22.1054 17.4804 22 17.7348 22 18C22 18.7911 21.7654 19.5645 21.3259 20.2223C20.8864 20.8801 20.2616 21.3928 19.5307 21.6955C18.7998 21.9983 17.9956 22.0775 17.2196 21.9231C16.4437 21.7688 15.731 21.3878 15.1716 20.8284C14.6122 20.269 14.2312 19.5563 14.0769 18.7804C13.9225 18.0044 14.0017 17.2002 14.3045 16.4693C14.6072 15.7384 15.1199 15.1136 15.7777 14.6741C16.4355 14.2346 17.2089 14 18 14C18.2652 14 18.5196 13.8946 18.7071 13.7071C18.8946 13.5196 19 13.2652 19 13C19 12.7348 18.8946 12.4804 18.7071 12.2929C18.5196 12.1054 18.2652 12 18 12C16.8133 12 15.6533 12.3519 14.6666 13.0112C13.6799 13.6705 12.9109 14.6075 12.4567 15.7039C12.0026 16.8003 11.8838 18.0067 12.1153 19.1705C12.3468 20.3344 12.9182 21.4035 13.7574 22.2426C14.5965 23.0818 15.6656 23.6532 16.8295 23.8847C17.9933 24.1162 19.1997 23.9974 20.2961 23.5433C21.3925 23.0892 22.3295 22.3201 22.9888 21.3334C23.6481 20.3467 24 19.1867 24 18C24 17.7348 23.8946 17.4804 23.7071 17.2929C23.5196 17.1054 23.2652 17 23 17Z" fill="#474747"></path><path d="M16.7102 16.29C16.5219 16.1017 16.2665 15.9959 16.0002 15.9959C15.7339 15.9959 15.4785 16.1017 15.2902 16.29C15.1019 16.4783 14.9961 16.7337 14.9961 17C14.9961 17.2663 15.1019 17.5217 15.2902 17.71L17.2902 19.71C17.3831 19.8037 17.4937 19.8781 17.6156 19.9289C17.7375 19.9797 17.8682 20.0058 18.0002 20.0058C18.1322 20.0058 18.2629 19.9797 18.3848 19.9289C18.5066 19.8781 18.6172 19.8037 18.7102 19.71L22.7102 15.71C22.8034 15.6168 22.8774 15.5061 22.9278 15.3843C22.9783 15.2624 23.0043 15.1319 23.0043 15C23.0043 14.8681 22.9783 14.7376 22.9278 14.6158C22.8774 14.4939 22.8034 14.3832 22.7102 14.29C22.6169 14.1968 22.5063 14.1228 22.3844 14.0723C22.2626 14.0219 22.132 13.9959 22.0002 13.9959C21.8683 13.9959 21.7378 14.0219 21.6159 14.0723C21.4941 14.1228 21.3834 14.1968 21.2902 14.29L18.0002 17.59L16.7102 16.29Z" fill="#474747"></path></g><defs><clipPath id="clip0"><rect width="24" height="24" fill="white"></rect></clipPath></defs></svg>