<svg id="Layer_1" data-name="Layer 1" xmlns="http://www.w3.org/2000/svg" xmlns:xlink="http://www.w3.org/1999/xlink" viewBox="0 0 400 400"><defs><style>.cls-1,.cls-2,.cls-3,.cls-4,.cls-5,.cls-9{stroke:#ebf4ff;stroke-miterlimit:10;}.cls-1,.cls-2,.cls-3,.cls-4,.cls-5{stroke-width:5px;}.cls-1{fill:url(#linear-gradient);}.cls-2{fill:url(#linear-gradient-2);}.cls-3{fill:url(#linear-gradient-3);}.cls-4{fill:url(#linear-gradient-4);}.cls-5{fill:#2666b5;}.cls-6{fill:#1d4c87;}.cls-7{fill:#20201f;opacity:0.25;}.cls-8{fill:url(#linear-gradient-5);}.cls-9{stroke-width:10px;fill:url(#linear-gradient-6);}</style><linearGradient id="linear-gradient" x1="-1040.95" y1="5.04" x2="-1040.95" y2="134.5" gradientTransform="translate(1162.11)" gradientUnits="userSpaceOnUse"><stop offset="0" stop-color="#58bde7"/><stop offset="1" stop-color="#58bde7"/></linearGradient><linearGradient id="linear-gradient-2" x1="3224.1" y1="5.04" x2="3224.1" y2="134.5" gradientTransform="matrix(-1, 0, 0, 1, 3502.94, 0)" xlink:href="#linear-gradient"/><linearGradient id="linear-gradient-3" x1="1814.26" y1="278.6" x2="1738.73" y2="203.07" gradientTransform="matrix(-1, 0, 0, 1, 1855.05, 0)" xlink:href="#linear-gradient"/><linearGradient id="linear-gradient-4" x1="359.21" y1="278.6" x2="283.68" y2="203.07" gradientTransform="matrix(1, 0, 0, 1, 0, 0)" xlink:href="#linear-gradient"/><linearGradient id="linear-gradient-5" x1="200" y1="117.24" x2="200" y2="263.44" gradientUnits="userSpaceOnUse"><stop offset="0" stop-color="#ebf4ff"/><stop offset="1" stop-color="#58bde7"/></linearGradient><linearGradient id="linear-gradient-6" x1="200" y1="117.24" x2="200" y2="263.44" gradientTransform="matrix(1, 0, 0, 1, 0, 0)" xlink:href="#linear-gradient"/></defs><path class="cls-1" d="M150,6.63,81.09,48.3a10.88,10.88,0,0,0-5.24,9.3v66a10.87,10.87,0,0,0,16.5,9.3l68.89-41.68a10.87,10.87,0,0,0,5.24-9.3v-66A10.87,10.87,0,0,0,150,6.63Z"/><path class="cls-2" d="M250,6.63,318.91,48.3a10.88,10.88,0,0,1,5.24,9.3v66a10.87,10.87,0,0,1-16.5,9.3L238.76,91.23a10.87,10.87,0,0,1-5.24-9.3v-66A10.87,10.87,0,0,1,250,6.63Z"/><path class="cls-3" d="M43.44,163.89l84,50.79A13.24,13.24,0,0,1,133.78,226v80.43a13.25,13.25,0,0,1-20.11,11.34L29.72,267a13.26,13.26,0,0,1-6.39-11.33V175.22A13.25,13.25,0,0,1,43.44,163.89Z"/><path class="cls-4" d="M356.56,163.89l-83.95,50.79A13.24,13.24,0,0,0,266.22,226v80.43a13.25,13.25,0,0,0,20.11,11.34L370.28,267a13.26,13.26,0,0,0,6.39-11.33V175.22A13.25,13.25,0,0,0,356.56,163.89Z"/><path class="cls-5" d="M27,71.9,119.75,128a14.64,14.64,0,0,1,7.06,12.53v88.89A14.64,14.64,0,0,1,104.59,242L11.8,185.86a14.65,14.65,0,0,1-7.06-12.53V84.43A14.64,14.64,0,0,1,27,71.9Z"/><path class="cls-5" d="M373,71.9,280.25,128a14.64,14.64,0,0,0-7.06,12.53v88.89A14.64,14.64,0,0,0,295.41,242l92.79-56.13a14.65,14.65,0,0,0,7.06-12.53V84.43A14.64,14.64,0,0,0,373,71.9Z"/><path class="cls-5" d="M290.71,195.56V335.31a17.26,17.26,0,0,1-8.61,14.91l-73.49,42.43a17.2,17.2,0,0,1-17.22,0L117.9,350.22a17.25,17.25,0,0,1-8.62-14.91V195.56l59,34.06a63.41,63.41,0,0,0,63.42,0Z"/><path class="cls-6" d="M319.68,91.81,231.71,41a63.41,63.41,0,0,0-63.42,0l-88,50.79a63.43,63.43,0,0,0-31.71,54.93V248.31a63.43,63.43,0,0,0,31.71,54.93l88,50.79a63.41,63.41,0,0,0,63.42,0l88-50.79a63.43,63.43,0,0,0,31.71-54.93V146.74A63.43,63.43,0,0,0,319.68,91.81Z"/><path class="cls-7" d="M200,329.72A20.73,20.73,0,0,1,189.69,327l-88-50.79a20.67,20.67,0,0,1-10.31-17.85V156.75a20.67,20.67,0,0,1,10.31-17.85l88-50.79a20.62,20.62,0,0,1,20.61,0l88,50.78a20.69,20.69,0,0,1,10.31,17.86V258.32a20.67,20.67,0,0,1-10.31,17.85l-88,50.79A20.73,20.73,0,0,1,200,329.72Z"/><path class="cls-8" d="M200,319.71A20.63,20.63,0,0,1,189.69,317l-88-50.78a20.67,20.67,0,0,1-10.31-17.86V146.74a20.67,20.67,0,0,1,10.31-17.85l88-50.79a20.62,20.62,0,0,1,20.61,0l88,50.79a20.67,20.67,0,0,1,10.31,17.85V248.31a20.68,20.68,0,0,1-10.31,17.86l-88,50.78A20.63,20.63,0,0,1,200,319.71Z"/><path class="cls-9" d="M200,319.71A20.63,20.63,0,0,1,189.69,317l-88-50.78a20.67,20.67,0,0,1-10.31-17.86V146.74a20.67,20.67,0,0,1,10.31-17.85l88-50.79a20.62,20.62,0,0,1,20.61,0l88,50.79a20.67,20.67,0,0,1,10.31,17.85V248.31a20.68,20.68,0,0,1-10.31,17.86l-88,50.78A20.63,20.63,0,0,1,200,319.71Z"/><path class="cls-6" d="M274.61,165.61a7.4,7.4,0,0,0-1.82-3.4L235.3,124.72a7.5,7.5,0,0,0-5.3-2.19H170a7.5,7.5,0,0,0-5.3,2.19l-37.49,37.49a7.4,7.4,0,0,0-1.82,3.4,7.79,7.79,0,0,0-.2,1,7.41,7.41,0,0,0-.19,1v15c0,9.34,6.2,17.36,15,20.76v54.24a15,15,0,0,0,15,15h90a15,15,0,0,0,15-15V203.29c8.8-3.4,15-11.42,15-20.76v-15a97.92,97.92,0,0,0-.39-1.92Zm-101.5-28.08h53.78l22.5,22.5H150.61Zm-28.59,67.05a26.67,26.67,0,0,0,4.85.45A26.67,26.67,0,0,1,144.52,204.58Zm48,52.95V228.25a.71.71,0,0,1,.71-.72h13.58a.71.71,0,0,1,.71.72v29.28Zm30,0V228.25a15.73,15.73,0,0,0-15.71-15.72H193.21a15.73,15.73,0,0,0-15.71,15.72v29.28H155V204.36a25.09,25.09,0,0,0,11.25-5.61,25.81,25.81,0,0,0,33.75,0,25.81,25.81,0,0,0,33.75,0A25.09,25.09,0,0,0,245,204.36v53.17ZM250.63,205a26.67,26.67,0,0,0,4.85-.45A26.67,26.67,0,0,1,250.63,205Zm9.37-22.5c0,4.14-4.2,7.5-9.37,7.5s-9.38-3.36-9.38-7.5a7.5,7.5,0,1,0-15,0c0,4.14-4.2,7.5-9.37,7.5s-9.38-3.36-9.38-7.5a7.5,7.5,0,1,0-15,0c0,4.14-4.2,7.5-9.38,7.5s-9.37-3.36-9.37-7.5a7.5,7.5,0,1,0-15,0c0,4.14-4.2,7.5-9.38,7.5s-9.37-3.36-9.37-7.5V175H260Z"/></svg>